<svg xmlns="http://www.w3.org/2000/svg" xmlns:xlink="http://www.w3.org/1999/xlink" version="1.1" width="612pt" height="792pt" viewBox="0 0 612 792">
<text xml:space="preserve" transform="matrix(1 0 -0 1 0 792)" font-size="17.2154" font-family="SFBX1728" font-weight="bold"><tspan y="-755.005" x="232.221 246.7508 260.69529 281.4226 295.43595 309.96574 322.15425 336.68403 351.2138 365.7436">&#x0426;&#x041e;&#x0419;&#x0410;&#x0414;&#x0415;&#x041b;&#x0418;&#x041d;&#x0410;</tspan></text>
<text xml:space="preserve" transform="matrix(1 0 -0 1 0 792)" font-size="10.9091" font-family="SFRM1095"><tspan y="-736.603" x="242.862 251.29474 256.71656 260.9384 266.3602 271.782 277.20384 281.42567 286.84748 292.2693 297.6911 303.1129 308.53474 313.95655">+7(960)4773943</tspan></text>
<text xml:space="preserve" transform="matrix(1 0 -0 1 0 792)" font-size="10.9091" font-family="CMSY10" font-style="italic"><tspan y="-736.603" x="323.011">&#x22c4;</tspan></text>
<text xml:space="preserve" transform="matrix(1 0 -0 1 0 792)" font-size="10.9091" font-family="SFRM1095"><tspan y="-736.603" x="332.08299 342.02119 347.443 352.2648 358.28663 363.70845">&#x041c;&#x043e;&#x0441;&#x043a;&#x0432;&#x0430;</tspan></text>
<text fill="#0000ff" xml:space="preserve" transform="matrix(1 0 -0 1 0 792)" font-size="10.9091" font-family="SFRM1095"><tspan y="-720.627" x="185.36098 190.7828 196.80463 201.62645 204.63736 207.64827 213.67009 219.09192 223.31374 227.5901 233.01194 236.02285 244.45558 249.87741 255.29924 261.32109 267.03746 272.45927 275.47019 280.292 285.7138">adelinatsoi@yahoo.com</tspan></text>
<text xml:space="preserve" transform="matrix(1 0 -0 1 0 792)" font-size="10.9091" font-family="CMSY10" font-style="italic"><tspan y="-720.627" x="298.417">&#x22c4;</tspan></text>
<text fill="#0000ff" xml:space="preserve" transform="matrix(1 0 -0 1 0 792)" font-size="10.9091" font-family="SFRM1095"><tspan y="-720.627" x="307.48899 313.20536 317.4272 321.64903 327.67085 331.9472 334.95814 340.37995 345.80177 350.0236 353.03453 362.06727 366.88908 372.31089 377.7327 383.75453 388.57633 391.58726 394.59819 400.62 406.0418 410.26365 414.54 419.96183">https://t.me/adelinatsoi</tspan></text>
<text xml:space="preserve" transform="matrix(1 0 -0 1 0 792)" font-size="10.9091" font-family="SFBX1095" font-weight="bold"><tspan y="-693.023" x="28.799988 38.159997 47.018186 54.490919 63.89456 71.50911 80.86912 89.72731 99.13095 108.88368 118.63641">&#x041e;&#x0411;&#x0420;&#x0410;&#x0417;&#x041e;&#x0412;&#x0410;&#x041d;&#x0418;&#x0415;</tspan></text>
<path transform="matrix(1,0,0,-1,28.8,104.03003)" stroke-width=".398" stroke-linecap="butt" stroke-miterlimit="10" stroke-linejoin="miter" fill="none" stroke="#000000" d="M0 0H554.401"/>
<text xml:space="preserve" transform="matrix(1 0 -0 1 0 792)" font-size="10.9091" font-family="SFBX1095" font-weight="bold"><tspan y="-673.422" x="28.8 38.552736 45.480016 52.407297 59.334577 66.261859 72.31641 79.24368 86.17096 92.22551 102.97097 111.2728 117.32735 123.22917 128.92372 137.23645 143.291 149.19283 156.1201 162.7092 172.90921 183.99286 190.92014 197.84741 207.54561 213.7747 220.70198 229.01471 235.06926 240.97109 247.89836 254.47655 260.5311 268.14567 274.37477 280.42933 287.0075 293.06208 299.98936 306.04389 312.27299">&#x041f;&#x0440;&#x0438;&#x043a;&#x043b;&#x0430;&#x0434;&#x043d;&#x0430;&#x044f;&#x043c;&#x0430;&#x0442;&#x0435;&#x043c;&#x0430;&#x0442;&#x0438;&#x043a;&#x0430;&#x0438;&#x0438;&#x043d;&#x0444;&#x043e;&#x0440;&#x043c;&#x0430;&#x0442;&#x0438;&#x043a;&#x0430;,&#x0431;&#x0430;&#x043a;&#x0430;&#x043b;&#x0430;&#x0432;&#x0440;</tspan></text>
<text xml:space="preserve" transform="matrix(1 0 -0 1 0 792)" font-size="10.9091" font-family="SFRM1095"><tspan y="-673.422" x="319.17298 325.80574 334.83848 340.8494 346.87123 352.29304 358.31486 363.13667 368.55848 373.9803 381.81303 391.45668 397.18394 403.20576 409.22758 414.64939 419.4712 425.493 430.30393 436.32575 441.74757 446.56938 536.144 541.5658 546.9876 552.4094 557.83126 561.44216 566.86398 572.28579 577.7076">,&#x0424;&#x0438;&#x043d;&#x0430;&#x043d;&#x0441;&#x043e;&#x0432;&#x044b;&#x0439;&#x0443;&#x043d;&#x0438;&#x0432;&#x0435;&#x0440;&#x0441;&#x0438;&#x0442;&#x0435;&#x0442;2019-2023</tspan></text>
<text xml:space="preserve" transform="matrix(1 0 -0 1 0 792)" font-size="10.9091" font-family="SFBX1095" font-weight="bold"><tspan y="-659.873" x="28.799988 38.541818 44.236368 51.163648 56.269105 62.323656 69.9382 76.86548 82.56003 87.05458 95.7055 101.93459 107.040058 113.61824 122.69461 128.74916 135.67644 146.76009 152.30191 158.531 168.91648 175.84375 182.77103 187.61467 193.30922 202.57105 209.14923 212.60742 217.52742 220.98561 227.2147">Neuralnetworksandcomputervision</tspan></text>
<text xml:space="preserve" transform="matrix(1 0 -0 1 0 792)" font-size="10.9091" font-family="SFRM1095"><tspan y="-659.873" x="238.29898 244.9208 250.94263 256.36445 265.3972 269.67356 275.69538 281.7172 290.76084 298.7463 303.5681 307.84449 312.6663 318.0881 322.30995 326.8263 336.46995 344.4554 350.47724 354.7536 359.02998 362.03 371.07365 379.50639 385.83366 390.65547 400.28819 407.66273 413.68455 419.70637 424.52818 429.94999 434.1718 437.18275 442.60456 561.42648 566.84829 572.2701 577.6919">,SamsungResearchRussiaOpenEducation2023</tspan></text>
<text xml:space="preserve" transform="matrix(1 0 -0 1 0 792)" font-size="10.9091" font-family="SFBX1095" font-weight="bold"><tspan y="-646.324" x="28.799988 33.45817 40.03636 44.88 50.57455 55.680009 66.06547 71.76002 78.687297 82.14548 88.20003 93.04367 102.894588 114.70914 120.76369 125.95642 132.8837 136.34189 143.26917 153.12009 160.60373 166.29828 172.35283 177.45829 184.38556 187.84375 194.77103 201.00012 208.61469 213.27288 219.85106 224.6947 229.80016 240.18563 245.02927 255.41474 267.22929 273.2838 278.47654 285.4038 288.862 295.78929 305.6402 313.12385 318.8184 324.87294 329.9784 336.90568 340.36387 347.28025">IntermediateMachineLearning,IntrotoMachineLearning</tspan></text>
<text xml:space="preserve" transform="matrix(1 0 -0 1 0 792)" font-size="10.9091" font-family="SFRM1095"><tspan y="-646.324" x="357.723 364.34483 372.77757 378.19938 383.6212 389.043 392.05393 561.494 566.91586 572.33767 577.75949">,Kaggle2022</tspan></text>
<text xml:space="preserve" transform="matrix(1 0 -0 1 0 792)" font-size="10.9091" font-family="SFBX1095" font-weight="bold"><tspan y="-632.77499" x="28.799988 38.34545 44.4 49.24364 55.29819 62.22547 68.28002 73.20003 83.05094 89.8364 96.0655 102.992778 109.92005 116.84733 122.90188 127.74552 131.2037 137.4328">DatabaseFoundation</tspan></text>
<text xml:space="preserve" transform="matrix(1 0 -0 1 0 792)" font-size="10.9091" font-family="SFRM1095"><tspan y="-632.77499" x="144.38399 151.01673 159.44947 163.66037 169.0822 173.90402 176.91493 185.35858 193.1804 198.00223 203.42406 209.44588 214.2677 223.00589 561.48257 566.90438 572.3262 577.748">,OracleAcademy2021</tspan></text>
<text xml:space="preserve" transform="matrix(1 0 -0 1 0 792)" font-size="10.9091" font-family="SFBX1095" font-weight="bold"><tspan y="-619.22598" x="28.799988 37.799997 43.494546 48.600004 53.44364 56.901826 60.365465 63.829107 69.370929 75.425479 80.26912 90.12003 96.34913 104.31277 109.85459 116.08369 126.46915 133.39643 136.85462 142.54917 147.3928 150.851 157.0801">Certificateofcompletion</tspan></text>
<text xml:space="preserve" transform="matrix(1 0 -0 1 0 792)" font-size="10.9091" font-family="SFRM1095"><tspan y="-619.22598" x="164.03299 170.66573 178.34574 181.34574 187.07302 192.49485 201.22212 207.5494 212.37122 216.59304 561.48428 566.90609 572.3279 577.7497">,Bloomberg2021</tspan></text>
<text xml:space="preserve" transform="matrix(1 0 -0 1 0 792)" font-size="10.9091" font-family="SFBX1095" font-weight="bold"><tspan y="-594.048" x="28.799988 38.552724 47.956369 56.814558 68.98911 78.74185">&#x041d;&#x0410;&#x0412;&#x042b;&#x041a;&#x0418;</tspan></text>
<path transform="matrix(1,0,0,-1,28.8,203.00403)" stroke-width=".398" stroke-linecap="butt" stroke-miterlimit="10" stroke-linejoin="miter" fill="none" stroke="#000000" d="M0 0H554.401"/>
<text xml:space="preserve" transform="matrix(1 0 -0 1 0 792)" font-size="10.9091" font-family="SFBX1095" font-weight="bold"><tspan y="-572.538" x="28.8 38.552736 44.09456 53.094568 60.021848">&#x042f;&#x0437;&#x044b;&#x043a;&#x0438;</tspan></text>
<text xml:space="preserve" transform="matrix(1 0 -0 1 0 792)" font-size="10.9091" font-family="SFRM1095"><tspan y="-572.538" x="134.419 141.79357 147.52085 151.74266 157.76448 163.18631 169.20813 175.82996 181.85178 190.28452 197.05907 203.6918 210.46636 215.88819 220.11 224.93183">Python,SQL,Latex</tspan></text>
<text xml:space="preserve" transform="matrix(1 0 -0 1 0 792)" font-size="10.9091" font-family="SFBX1095" font-weight="bold"><tspan y="-558.98806" x="28.800004 38.55274 45.48002 51.021844 56.923669 63.85095 70.42914 78.741878 84.436428 91.3637 97.265529">&#x0418;&#x043d;&#x0441;&#x0442;&#x0440;&#x0443;&#x043c;&#x0435;&#x043d;&#x0442;&#x044b;</tspan></text>
<text xml:space="preserve" transform="matrix(1 0 -0 1 0 792)" font-size="10.9091" font-family="SFRM1095"><tspan y="-558.98806" x="134.419 142.54628 147.96811 153.98993 159.7063 165.12813 171.14995 177.78269 185.90996 188.92087 194.3427 199.16452 205.79726 214.30635 217.31726 221.53908 228.1609 233.73546 236.74637 240.96819 246.39002 253.02275 260.8555 266.2773 272.28825 275.3046 278.32099 284.3428 289.1646 295.18644 300.00825 304.83006 311.4628 318.83735 324.5646 329.3864 334.20823 337.21916 343.84098 351.2155 356.94279 364.7755 370.79734 376.21916 380.44099">Hadoop,Hive,Git,Jira,Confluence,Excel,PyCharm</tspan></text>
<text xml:space="preserve" transform="matrix(1 0 -0 1 0 792)" font-size="10.9091" font-family="SFBX1095" font-weight="bold"><tspan y="-545.439" x="28.800004 37.65819 44.585474 50.814569 57.741849 64.66913 70.898227 76.80005 82.4946 89.421878">&#x0411;&#x0438;&#x0431;&#x043b;&#x0438;&#x043e;&#x0442;&#x0435;&#x043a;&#x0438;</tspan></text>
<text xml:space="preserve" transform="matrix(1 0 -0 1 0 792)" font-size="10.9091" font-family="SFRM1095"><tspan y="-545.439" x="134.419 141.79357 147.52085 153.54267 159.56449 164.98632 169.20813 174.93541 181.55724 188.9318 194.65908 201.58635 207.00818 211.23 215.75728 221.7791 228.40093 235.48094 240.90277 246.92459 252.94641 258.36824 262.6446 269.26643 277.3937 283.41554 292.44828 299.8228 304.64463 311.27738 318.65193 321.66285 327.08467 331.3065 334.3174 339.13923 345.76106 351.18287 357.51014 362.33195 368.35377 374.07014 379.7974 385.52467 388.53559 395.1574 401.17924 406.00105 409.9283 417.4556 422.8774 427.09925 432.8265 438.55378 445.1756 452.1138 456.9356 462.95744 467.2338 472.6556 476.86656 483.95747 486.9575 492.08476 499.91749 506.5393 516.4775 521.8993 526.1211 532.14297 535.1539 540.5757 544.7975 547.8084 550.81936">PySpark,PyTorch,Pandas,NumPy,Plotly,openpyxl,networkx,TensorFlow,Matplotlib</tspan></text>
<text xml:space="preserve" transform="matrix(1 0 -0 1 0 792)" font-size="10.9091" font-family="SFBX1095" font-weight="bold"><tspan y="-515.20108" x="28.800004 38.16001 47.912748 60.087305 72.916408 80.389148 89.792789 98.65098 108.01099 116.68372">&#x041e;&#x041f;&#x042b;&#x0422;&#x0420;&#x0410;&#x0411;&#x041e;&#x0422;&#x042b;</tspan></text>
<path transform="matrix(1,0,0,-1,28.8,281.852)" stroke-width=".398" stroke-linecap="butt" stroke-miterlimit="10" stroke-linejoin="miter" fill="none" stroke="#000000" d="M0 0H554.401"/>
<text xml:space="preserve" transform="matrix(1 0 -0 1 0 792)" font-size="10.9091" font-family="SFBX1095" font-weight="bold"><tspan y="-494.995" x="28.8 38.345464 44.400014 49.243654 59.45457 65.509128 72.4364 78.49095 81.949138 88.52732 93.44733 102.447338 107.29098 116.290988 120.94917 129.80736">Dataanalyst(CIB)</tspan></text>
<text xml:space="preserve" transform="matrix(1 0 -0 1 0 792)" font-size="10.9091" font-family="SFRM1095"><tspan y="-494.995" x="437.663 443.0848 448.50663 451.51756 456.93937 462.36119 467.783 476.8157 484.05937 490.08119 499.1139 505.1357 510.55754 515.37936 520.80117 525.9284 531.7975 540.53567 545.3575 553.80117 559.22299 565.2448 570.06668 577.2994">12.2022-&#x043f;&#x043e;&#x043d;&#x0430;&#x0441;&#x0442;&#x043e;&#x044f;&#x0449;&#x0435;&#x0435;&#x0432;&#x0440;&#x0435;&#x043c;&#x044f;</tspan><tspan y="-481.445" x="28.799988 36.63272 42.054544 46.876367 52.89819 58.32001 63.741834 69.76366">&#x0421;&#x0431;&#x0435;&#x0440;&#x0431;&#x0430;&#x043d;&#x043a;</tspan></text>
<text xml:space="preserve" transform="matrix(1 0 -0 1 0 792)" font-size="10.9091" font-family="SFTI1095" font-style="italic"><tspan y="-481.445" x="546.53298 556.23117 561.38027 566.1694 571.70028 577.0348">&#x041c;&#x043e;&#x0441;&#x043a;&#x0432;&#x0430;</tspan></text>
<text xml:space="preserve" transform="matrix(1 0 -0 1 0 792)" font-size="10.9091" font-family="SFRM1095"><tspan y="-461.122" x="41.92096">&#x2022;</tspan></text>
<text xml:space="preserve" transform="matrix(1 0 -0 1 0 792)" font-size="10.9091" font-family="SFRM1095"><tspan y="-461.122" x="52.799959 59.869054 65.29088 70.1127 76.13452 81.55634 86.978168 92.39999 97.82181 105.65454 111.07636 116.498188 127.72365 136.83275 142.25458 148.2764 153.09822 159.12004 164.83641 170.71642 181.94188 189.1746 193.99643 199.41826 204.53464 210.55646 221.47647 226.8983 232.32013 237.74196 243.16379 250.39652 255.81835 261.22929 267.2511 272.0729 277.49473 283.51655 289.53837 298.64747 307.75657 313.17839 319.2002 324.622 330.64384 337.87657 343.89839 348.72019 354.142 360.16383 366.18565 375.2838 380.10563 386.12745 392.14927 398.17109 404.1929 409.61473 415.03654 423.54563 429.56745 435.58927 444.55656 452.9893 458.4111 464.43293 471.66566 477.68748 483.6984 489.1202 494.54203 499.96385 505.98567 512.0075 520.9748 526.3966 532.41848 537.2403 543.26217 548.68399 554.1058 560.1276 565.54946 571.5713 576.9931">&#x0420;&#x0430;&#x0437;&#x0440;&#x0430;&#x0431;&#x0430;&#x0442;&#x044b;&#x0432;&#x0430;&#x044e;&#x0438;&#x0432;&#x043d;&#x0435;&#x0434;&#x0440;&#x044f;&#x044e;&#x043c;&#x0435;&#x0442;&#x043e;&#x0434;&#x044b;&#x0430;&#x0432;&#x0442;&#x043e;&#x043c;&#x0430;&#x0442;&#x0438;&#x0437;&#x0430;&#x0446;&#x0438;&#x0438;&#x0438;&#x043e;&#x043f;&#x0442;&#x0438;&#x043c;&#x0438;&#x0437;&#x0430;&#x0446;&#x0438;&#x0438;&#x0441;&#x043a;&#x0440;&#x0438;&#x043f;&#x0442;&#x043e;&#x0432;&#x0434;&#x043b;&#x044f;&#x0444;&#x043e;&#x0440;&#x043c;&#x0438;&#x0440;&#x043e;&#x0432;&#x0430;&#x043d;&#x0438;&#x044f;&#x043e;&#x043f;&#x0435;&#x0440;&#x0430;&#x0442;&#x0438;&#x0432;&#x043d;&#x043e;&#x0439;</tspan><tspan y="-447.57203" x="52.799959 58.527238 64.54906 70.57088 75.9927 81.41452 87.43634 92.25816 98.27998 104.3018 109.12363 113.94545 119.66181 125.08363 135.1309 140.55274 145.97457 151.99639 156.8182 162.24004 168.26186 173.68369 178.4946 183.91643 193.9637 199.98552 206.00734 215.9128 221.33463 227.35645 232.17827 238.20009 243.02191 247.84374 251.46556 257.4874 262.60377 268.62559 274.6474 280.0692 284.89103 290.91285 295.73466 301.75648 306.57829 312.6001 318.62193 328.52738 334.25465 340.27647 346.29829 351.7201 357.1419 363.15284 367.97465 373.99647 380.01829 389.92375 395.34556 400.76737 406.78919 411.611 417.0328 422.45463 427.87644 432.69825 442.1455 450.57826 456.60008 462.6219 468.0437 474.06553 478.88734 484.90916 490.93098 496.35279 501.7637 507.18553 513.20736 519.2292 525.1092 532.14559 539.2256 544.6474 550.0692 555.491 560.60739 566.0292 578.1928">&#x0443;&#x043f;&#x0440;&#x0430;&#x0432;&#x043b;&#x0435;&#x043d;&#x0447;&#x0435;&#x0441;&#x043a;&#x043e;&#x0439;&#x043e;&#x0442;&#x0447;&#x0435;&#x0442;&#x043d;&#x043e;&#x0441;&#x0442;&#x0438;&#x0434;&#x043b;&#x044f;&#x0431;&#x0438;&#x0437;&#x043d;&#x0435;&#x0441;-&#x043f;&#x043e;&#x0434;&#x0440;&#x0430;&#x0437;&#x0434;&#x0435;&#x043b;&#x0435;&#x043d;&#x0438;&#x044f;&#x0443;&#x043f;&#x0440;&#x0430;&#x0432;&#x043b;&#x0435;&#x043d;&#x0438;&#x044f;&#x0442;&#x043e;&#x0440;&#x0433;&#x043e;&#x0432;&#x043e;&#x0433;&#x043e;&#x0444;&#x0438;&#x043d;&#x0430;&#x043d;&#x0441;&#x0438;&#x0440;&#x043e;&#x0432;&#x0430;&#x043d;&#x0438;&#x044f;.&#x0420;&#x0430;&#x0431;&#x043e;&#x0442;&#x0430;&#x044e;&#x0441;</tspan><tspan y="-434.023" x="52.799959 60.174509 65.90179 70.12361 76.14543 81.56725 91.19998 95.42181 102.79636 108.523639 114.545459 120.567279 125.9891 130.21092 135.9382 142.57094 149.64005 155.06188 161.0837 167.10552 172.52735 176.80371 183.42554 188.84737 195.17464 199.99646 206.01828 211.73465 217.46193 223.18921 226.20012 232.83286 240.81832 245.64014 251.36742 257.38926 262.21107 266.48744 270.69837 274.97474 281.60749 287.6293 292.4511 295.46205 300.28385 306.30567 309.3166 315.3384 324.37117 328.593 335.2148 341.23664 349.66938 356.4439 363.07667 371.20396 376.62577 382.64759 388.36396 393.78578">Python(PySpark,Pandas,openpyxl,Requests,Selenium),SQL,Hadoop</tspan></text>
<text xml:space="preserve" transform="matrix(1 0 -0 1 0 792)" font-size="10.9091" font-family="SFRM1095"><tspan y="-414.696" x="41.92096">&#x2022;</tspan></text>
<text xml:space="preserve" transform="matrix(1 0 -0 1 0 792)" font-size="10.9091" font-family="SFRM1095"><tspan y="-414.696" x="52.799959 60.63269 66.05451 70.876338 75.9927 81.41452 86.83634 92.85816 98.73817 109.832729 115.25455 121.27637 126.69819 132.72002 138.74184 144.16367 150.18549 156.2073 161.02913 165.85095 171.87277 177.88368 185.66187 191.0837 196.50553 202.52735 207.34917 212.771 220.60373 226.571 231.99283 238.01465 244.03647 252.17465 258.19648 263.6183 271.75648 280.49467 286.51649 294.28376 300.30558 305.7274 310.5492 317.78193 322.60374 328.02555 334.04737 338.86918 344.83647 350.85829 356.8801 361.7019 367.72373 373.14555 378.56736 384.58918 390.011 395.4328 400.8546 406.27644 412.29826 417.12007 423.08735 428.50917 433.93098 439.35279 444.7746 453.74189 462.72007 468.74189 474.1637 478.9855 485.00733 489.82914 495.25096 506.04005 512.0619 520.44009 526.4619 531.8837 537.9056 543.9165 551.74929 561.93838 567.36019 572.782 579.41476">&#x0421;&#x043e;&#x0441;&#x0442;&#x0430;&#x0432;&#x043b;&#x044f;&#x044e;&#x0430;&#x043d;&#x0430;&#x043b;&#x0438;&#x0442;&#x0438;&#x0447;&#x0435;&#x0441;&#x043a;&#x0438;&#x0435;&#x043e;&#x0442;&#x0447;&#x0435;&#x0442;&#x044b;,&#x0432;&#x043a;&#x043b;&#x044e;&#x0447;&#x0430;&#x044e;&#x0449;&#x0438;&#x0435;&#x0440;&#x0430;&#x0437;&#x043c;&#x0435;&#x0442;&#x043a;&#x0443;,&#x043f;&#x0440;&#x0435;&#x0434;&#x043e;&#x0431;&#x0440;&#x0430;&#x0431;&#x043e;&#x0442;&#x043a;&#x0443;,&#x043e;&#x0442;&#x0431;&#x043e;&#x0440;&#x0438;&#x0440;&#x0430;&#x0441;&#x0447;&#x0435;&#x0442;&#x044b;&#x043f;&#x043e;&#x0434;&#x0430;&#x043d;&#x043d;&#x044b;&#x043c;&#x043e;&#x0431;&#x044a;-</tspan><tspan y="-401.14604" x="52.799959 57.62178 64.854518 70.27634 81.16362 86.58544 92.00726 104.09454 111.32728 117.33819 127.01456 131.83638 137.25821 143.28003 148.70186 154.72368 161.38913 168.02187 173.4437 179.46552 185.48734 192.72006 198.14189 206.28008 211.1019 220.17827 226.20009 232.22191 237.64374 243.05466 247.87648 253.8983 259.62559 265.0474 274.72377 279.54557 285.56739 291.5783 297.00013 302.42195 307.24375 315.7201 325.39646 331.41828 336.24009 341.0619 347.0837 351.90553 357.92735 363.34916 368.77098 374.19279 380.2146 386.23643 392.11643 399.34916 409.0255 415.03645 421.05827 430.5928 436.61463 442.03645 446.85826 452.88008 458.30189 463.7237 469.1455 474.56733 480.58915 490.2655 496.28733 501.10914 506.8255 512.2473 519.48007 524.3019 530.3237 536.3456 541.7674 547.1892 552.01107 558.0329 563.4547 569.47659 577.3093">&#x0435;&#x043c;&#x043e;&#x043c;10+&#x043c;&#x043b;&#x043d;&#x0441;&#x0442;&#x0440;&#x043e;&#x043a;.&#x0417;&#x0430;&#x043d;&#x0438;&#x043c;&#x0430;&#x044e;&#x0441;&#x044c;&#x043f;&#x0440;&#x043e;&#x0432;&#x0435;&#x0440;&#x043a;&#x043e;&#x0439;&#x0433;&#x0438;&#x043f;&#x043e;&#x0442;&#x0435;&#x0437;&#x0438;&#x0438;&#x0441;&#x0441;&#x043b;&#x0435;&#x0434;&#x043e;&#x0432;&#x0430;&#x043d;&#x0438;&#x044f;&#x043c;&#x0438;&#x0434;&#x043b;&#x044f;&#x0440;&#x0430;&#x0437;&#x0440;&#x0430;&#x0431;&#x043e;&#x0442;&#x043a;&#x0438;&#x0440;&#x0435;&#x043a;&#x043e;&#x043c;&#x0435;&#x043d;&#x0434;&#x0430;&#x0442;&#x0435;&#x043b;&#x044c;&#x043d;&#x044b;&#x0445;</tspan><tspan y="-387.59703" x="52.799959 60.032693 65.149059 71.170879 75.9927 82.01452 86.83634 96.47998 102.5018 111.53453 117.55635 123.57817 128.69455 134.71637 140.44365 146.46547 151.59276 157.01459 167.85823 173.28006 178.70189 184.72371 189.54553 194.96736 200.38919 205.81102 210.63285 219.66559 228.09833 234.12015 240.14197 245.5638 251.58562 256.40745 262.42927 268.45109 273.8729 279.2947 284.71653 290.73835 296.76017">&#x043c;&#x043e;&#x0434;&#x0435;&#x043b;&#x0435;&#x0439;&#x043f;&#x043e;&#x043f;&#x0440;&#x043e;&#x0434;&#x0443;&#x043a;&#x0442;&#x0430;&#x043c;&#x0442;&#x043e;&#x0440;&#x0433;&#x043e;&#x0432;&#x043e;&#x0433;&#x043e;&#x0444;&#x0438;&#x043d;&#x0430;&#x043d;&#x0441;&#x0438;&#x0440;&#x043e;&#x0432;&#x0430;&#x043d;&#x0438;&#x044f;</tspan></text>
<text xml:space="preserve" transform="matrix(1 0 -0 1 0 792)" font-size="10.9091" font-family="SFRM1095"><tspan y="-368.27003" x="41.92096">&#x2022;</tspan></text>
<text xml:space="preserve" transform="matrix(1 0 -0 1 0 792)" font-size="10.9091" font-family="SFRM1095"><tspan y="-368.27003" x="52.799959 60.92724 66.34906 71.77088 77.1927 84.42544 89.84726 95.26908 101.2909 106.112728 112.134548 118.156368 123.883647 135.26184 141.28366 147.01094 152.43277 158.45459 164.47641 170.49823 178.33097 186.39279 192.41461 197.23644 203.25826 208.08008 213.5019 218.92374 224.94556 230.82556 237.07648 243.0983 247.92012 252.74195 258.76377 263.58558 269.6074 275.33467 286.71284 295.98558 302.0074 308.0292 314.05104 321.28376 326.10557 332.12739 337.9965 349.3856 354.8074 360.22923 365.05104 372.28376 377.40013 386.43287 392.45469 397.8765 402.6983 408.12013 417.38194 423.40376 428.82557 434.24739 442.0801 450.8183 455.6401 461.66194 467.68376 476.80375 481.62556 490.0583 498.49104 503.31285 509.33467 514.7565 520.7783 526.20016 532.222 537.6438 542.46566 547.88748 557.1493 563.17117 568.59298 574.0148 579.4366">&#x0410;&#x0432;&#x0442;&#x043e;&#x043c;&#x0430;&#x0442;&#x0438;&#x0437;&#x0438;&#x0440;&#x0443;&#x044e;&#x0440;&#x0443;&#x0442;&#x0438;&#x043d;&#x043d;&#x044b;&#x0435;&#x0434;&#x0435;&#x0439;&#x0441;&#x0442;&#x0432;&#x0438;&#x044f;,&#x0438;&#x0441;&#x0441;&#x043b;&#x0435;&#x0434;&#x0443;&#x044e;&#x0438;&#x043f;&#x0440;&#x0438;&#x043c;&#x0435;&#x043d;&#x044f;&#x044e;&#x0432;&#x043e;&#x0437;&#x043c;&#x043e;&#x0436;&#x043d;&#x043e;&#x0441;&#x0442;&#x0438;&#x043f;&#x043e;&#x0432;&#x044b;&#x0448;&#x0435;&#x043d;&#x0438;&#x044f;&#x044d;&#x0444;&#x0444;&#x0435;&#x043a;&#x0442;&#x0438;&#x0432;&#x043d;&#x043e;&#x0441;&#x0442;&#x0438;&#x0440;&#x0430;&#x0431;&#x043e;-</tspan><tspan y="-354.721" x="52.799959 58.22178 69.66542 74.48724 80.50906 86.53088 92.552707 98.574527 103.996349 109.41817 114.83999 121.47272 129.90546 135.32729 144.96002 150.98184 155.80367 160.62549 165.75276 171.77458 176.89096 182.01825 187.42917 191.95645 198.57828 204.0001 210.02193 214.84375 222.07648 231.57831 237.58922 246.63288 252.6547 257.77107 263.79289 268.6147 274.0365 279.4583 284.88014 290.30195 296.32377 305.67286 311.09468 316.51649 322.5274 327.3492 332.77104 338.19285 347.23649 352.0583 357.4801 363.50193 369.52375 374.94557 380.36738 386.3892 392.411 397.83283 402.65464 411.68736 417.70918 426.7528 435.78553 441.80735 447.22917 452.05097 461.08369 465.9055 474.64369 479.46549 485.4873 490.3091 496.33094 501.15275 507.17457 512.5964 518.6182">&#x0442;&#x044b;&#x0441;&#x043a;&#x0440;&#x0438;&#x043f;&#x0442;&#x043e;&#x0432;.&#x041a;&#x0430;&#x043a;&#x0440;&#x0435;&#x0437;&#x0443;&#x043b;&#x044c;&#x0442;&#x0430;&#x0442;,&#x0432;&#x0440;&#x0435;&#x043c;&#x044f;&#x043d;&#x0430;&#x043f;&#x043e;&#x0434;&#x0433;&#x043e;&#x0442;&#x043e;&#x0432;&#x043a;&#x0443;&#x043e;&#x0442;&#x0447;&#x0435;&#x0442;&#x043e;&#x0432;&#x0441;&#x043e;&#x043a;&#x0440;&#x0430;&#x0442;&#x0438;&#x043b;&#x043e;&#x0441;&#x044c;&#x043d;&#x0430;3&#x0447;&#x0430;&#x0441;&#x0430;&#x0435;&#x0436;&#x0435;&#x043d;&#x0435;&#x0434;&#x0435;&#x043b;&#x044c;&#x043d;&#x043e;</tspan></text>
<text xml:space="preserve" transform="matrix(1 0 -0 1 0 792)" font-size="10.9091" font-family="SFRM1095"><tspan y="-335.393" x="41.92096">&#x2022;</tspan></text>
<text xml:space="preserve" transform="matrix(1 0 -0 1 0 792)" font-size="10.9091" font-family="SFRM1095"><tspan y="-335.393" x="52.799959 60.621786 66.64361 70.26543 76.28725 82.01453 90.44726 95.86908 101.8909 107.31272 113.33454 119.35636 124.77818 130.8 136.51638 145.56003 150.98186 157.00368 161.8255 170.56369 176.58551 182.60733 191.94553 201.58917 207.011 213.03282 218.7601 224.18193 230.20375 235.02558 241.0474 247.06922 253.08013 262.42924 268.45106 273.27287 278.69468 284.1165 290.1383 296.16014 302.18196 307.89833 313.32014 318.74195 325.3747 331.3965 337.40745 342.22926 348.25108 353.67289 358.4947 363.62196 369.04377 374.46559 380.4874 385.3092 391.33103 397.34196 405.78559 411.8074 416.6292 421.45103 426.57829 432.6001 437.71647 442.83283 448.25465 453.67646 459.09828 468.1419 473.56373 479.58555 484.40736 490.42918 495.25099 500.07279 503.68373 508.81098 513.9383 519.96017 525.982 531.4038 536.8147 542.83657 548.8584">Ad-hoc&#x0430;&#x043d;&#x0430;&#x043b;&#x0438;&#x0442;&#x0438;&#x043a;&#x0430;&#x0432;&#x043d;&#x0435;&#x0448;&#x043d;&#x0438;&#x0445;&#x0438;&#x0432;&#x043d;&#x0443;&#x0442;&#x0440;&#x0435;&#x043d;&#x043d;&#x0438;&#x0445;&#x0438;&#x0441;&#x0442;&#x043e;&#x0447;&#x043d;&#x0438;&#x043a;&#x043e;&#x0432;,&#x043f;&#x0440;&#x0435;&#x0434;&#x043e;&#x0441;&#x0442;&#x0430;&#x0432;&#x043b;&#x0435;&#x043d;&#x0438;&#x0435;&#x0440;&#x0435;&#x0437;&#x0443;&#x043b;&#x044c;&#x0442;&#x0430;&#x0442;&#x043e;&#x0432;&#x0431;&#x0438;&#x0437;&#x043d;&#x0435;&#x0441;-&#x0430;&#x0443;&#x0434;&#x0438;&#x0442;&#x043e;&#x0440;&#x0438;&#x0438;</tspan></text>
<text xml:space="preserve" transform="matrix(1 0 -0 1 0 792)" font-size="10.9091" font-family="SFBX1095" font-weight="bold"><tspan y="-310.216" x="28.799958 38.552694 47.06179 56.4218 64.60362 74.35635 83.02909">&#x041f;&#x0420;&#x041e;&#x0415;&#x041a;&#x0422;&#x042b;</tspan></text>
<path transform="matrix(1,0,0,-1,28.8,486.837)" stroke-width=".398" stroke-linecap="butt" stroke-miterlimit="10" stroke-linejoin="miter" fill="none" stroke="#000000" d="M0 0H554.401"/>
<text xml:space="preserve" transform="matrix(1 0 -0 1 0 792)" font-size="10.9091" font-family="SFRM1095"><tspan y="-290.676" x="41.921">&#x2022;</tspan></text>
<text xml:space="preserve" transform="matrix(1 0 -0 1 0 792)" font-size="10.9091" font-family="SFRM1095"><tspan y="-290.676" x="52.800004 61.23274 67.25456 72.676387 78.698207 85.93094 91.95276 96.77458 102.1964 108.21822 114.24004 119.661869 125.683689 131.7055 139.52733 147.97098 152.7928 158.21463 164.23645 169.35283 175.37465 185.0183 194.05104 201.28377 206.7056 215.44379 221.4656 227.48743 233.50925 238.93108 249.78563 255.20746 260.61839 266.34565 272.36747 277.18928 283.2111 289.2329 295.25474">&#x041e;&#x043f;&#x0442;&#x0438;&#x043c;&#x0438;&#x0437;&#x0430;&#x0446;&#x0438;&#x043e;&#x043d;&#x043d;&#x044b;&#x0435;&#x0437;&#x0430;&#x0434;&#x0430;&#x0447;&#x0438;&#x0432;&#x043c;&#x0430;&#x0448;&#x0438;&#x043d;&#x043d;&#x043e;&#x043c;&#x043e;&#x0431;&#x0443;&#x0447;&#x0435;&#x043d;&#x0438;&#x0438;.</tspan><tspan y="-277.12699" x="52.800004 64.74547 69.56729 74.98911 79.810939 85.832759 91.25458 97.2764 106.21095 111.632778 117.654598 123.076419 129.09824 135.12006 140.54189 145.96372 150.78554 156.80736 161.62918 168.16373 177.09828 183.1201 187.94193 197.47647 202.2983 207.72013 213.14196 219.16378 224.5856 230.60742 241.95288 247.37471 252.19654 258.21836 263.64018 269.06199 275.0838 282.91654 291.25108 298.4838 303.3056 308.72743 313.85469 319.8765 331.22196 336.64378 342.6656 348.0874 354.10923 361.34196 367.36378 372.18559 377.6074 383.6292 389.65104 395.07286 401.09468 407.1165 414.94923 424.1892 429.61103 435.63285 440.45466 445.87648 451.8983 457.9201 463.34193 470.57466 475.99647 481.41828 487.94194 496.37467 502.39649 507.8183 512.64016 518.662 527.59658 533.6184 538.44027 543.86209 549.8839 555.90579 560.7276 566.1494 571.5712 576.99307">&#x042f;&#x0441;&#x043e;&#x0437;&#x0434;&#x0430;&#x043b;&#x0430;&#x0431;&#x0438;&#x0431;&#x043b;&#x0438;&#x043e;&#x0442;&#x0435;&#x043a;&#x0443;,&#x0432;&#x043d;&#x0435;&#x0439;&#x0441;&#x043e;&#x0431;&#x0440;&#x0430;&#x043d;&#x044b;&#x043e;&#x0441;&#x043d;&#x043e;&#x0432;&#x043d;&#x044b;&#x0435;&#x043c;&#x0435;&#x0442;&#x043e;&#x0434;&#x044b;&#x043e;&#x043f;&#x0442;&#x0438;&#x043c;&#x0438;&#x0437;&#x0430;&#x0446;&#x0438;&#x043e;&#x043d;&#x043d;&#x044b;&#x0445;&#x0430;&#x043b;&#x0433;&#x043e;&#x0440;&#x0438;&#x0442;&#x043c;&#x043e;&#x0432;.&#x041f;&#x0440;&#x043e;&#x0435;&#x043a;&#x0442;&#x0440;&#x0435;&#x0430;&#x043b;&#x0438;&#x0437;&#x043e;&#x0432;&#x0430;&#x043d;</tspan><tspan y="-263.57798" x="52.800004 58.821828 67.85456 73.734569 78.55639 86.38912 92.116397 100.549129 106.570949 112.592769 118.01459 122.83641 128.85823 134.28006 141.51279 148.74552 154.76734 160.78916 166.21099 171.63282 177.05464 183.07646 189.09828 198.5892 205.96376 211.69104 215.91286 221.93468 227.3565 237.00016 245.43289 251.45471 256.27653 262.29835 267.72016 273.74198 279.1638 283.9856 289.4074 294.82923 300.25105 306.27287 312.29469 317.1165 327.9601 335.33467 341.06193 347.9892 353.411 357.63285 362.1601 368.18193 374.80375 381.88374 387.30555 392.11647 398.13829 404.1601 409.5819 414.40373 419.82554 425.84736 431.26918 437.291 443.171 447.9928 453.4146 457.93098 467.4328 475.8655 481.88734 487.90916 493.93098 498.75279 504.7746 509.5964 515.6182 520.44009 530.08377 540.0219 543.9383 551.77108">&#x043d;&#x0430;&#x044f;&#x0437;&#x044b;&#x043a;&#x0435;&#x043f;&#x0440;&#x043e;&#x0433;&#x0440;&#x0430;&#x043c;&#x043c;&#x0438;&#x0440;&#x043e;&#x0432;&#x0430;&#x043d;&#x0438;&#x044f;Python&#x0441;&#x0438;&#x0441;&#x043f;&#x043e;&#x043b;&#x044c;&#x0437;&#x043e;&#x0432;&#x0430;&#x043d;&#x0438;&#x0435;&#x043c;PyTorch.&#x0420;&#x0430;&#x0441;&#x043f;&#x0440;&#x043e;&#x0441;&#x0442;&#x0440;&#x0430;&#x043d;&#x044f;&#x0435;&#x0442;&#x0441;&#x044f;&#x0441;&#x043b;&#x0438;&#x0446;&#x0435;&#x043d;&#x0437;&#x0438;&#x0435;&#x0439;MIT.</tspan></text>
<text fill="#0000ff" xml:space="preserve" transform="matrix(1 0 -0 1 0 792)" font-size="10.9091" font-family="SFRM1095"><tspan y="-250.02797" x="52.800004 58.516374 64.24365 70.26547">pypi</tspan></text>
<text fill="#0000ff" xml:space="preserve" transform="matrix(1 0 -0 1 0 792)" font-size="10.9091" font-family="SFRM1095"><tspan y="-250.02797" x="76.8982 82.32002 85.33093 89.55276 95.26912 101.29094">github</tspan></text>
<text fill="#0000ff" xml:space="preserve" transform="matrix(1 0 -0 1 0 792)" font-size="10.9091" font-family="SFRM1095"><tspan y="-250.02797" x="110.92367 115.14549 119.967319 125.38914 131.41097 135.63278 141.6546 146.47643 152.49825 158.22553 163.04735">readthedocs</tspan></text>
<text xml:space="preserve" transform="matrix(1 0 -0 1 0 792)" font-size="10.9091" font-family="SFRM1095"><tspan y="-232.69297" x="41.921007">&#x2022;</tspan></text>
<text xml:space="preserve" transform="matrix(1 0 -0 1 0 792)" font-size="10.9091" font-family="SFRM1095"><tspan y="-232.69297" x="52.800004 64.85456 70.86547 75.687297 81.109119 87.130939 93.152759 97.97458 103.3964 108.81822 114.24004 120.26186 129.30551 138.93825 144.96007 150.98189 157.00371 164.23644 169.05826 175.08008 181.1019 187.12372 196.15647 201.5783 207.60012 212.42194 217.84377 223.86559 229.8874 235.30924 246.16379 253.09107 257.3129 262.7347 268.75654 273.0329 284.7711 290.7929 296.81474 306.31657 312.33839 317.7602 322.582 328.0038 334.02565 339.44746 344.26927 350.28019 356.302 365.80384 371.22566 376.04747 382.06929 387.4911 392.9129 398.93473 404.95655 410.37837 415.20018 424.23289 430.2547 436.27653 441.09834 447.12016 451.94197 457.05833 462.48014 467.90196 473.92378 478.74559 484.7674 490.7892 500.29106 505.11286 511.13468 516.5565 524.98928 530.40017 539.4438 544.2656 550.2875 555.7093 561.73117 567.753">&#x042f;&#x0440;&#x0435;&#x0430;&#x043b;&#x0438;&#x0437;&#x043e;&#x0432;&#x0430;&#x043b;&#x0430;&#x0438;&#x043f;&#x0440;&#x0438;&#x043c;&#x0435;&#x043d;&#x0438;&#x043b;&#x0430;&#x0430;&#x043b;&#x0433;&#x043e;&#x0440;&#x0438;&#x0442;&#x043c;TransH&#x0434;&#x043b;&#x044f;&#x043f;&#x043e;&#x0441;&#x0442;&#x0440;&#x043e;&#x0435;&#x043d;&#x0438;&#x044f;&#x0432;&#x0435;&#x043a;&#x0442;&#x043e;&#x0440;&#x043d;&#x043e;&#x0433;&#x043e;&#x043f;&#x0440;&#x0435;&#x0434;&#x0441;&#x0442;&#x0430;&#x0432;&#x043b;&#x0435;&#x043d;&#x0438;&#x044f;&#x0433;&#x0440;&#x0430;&#x0444;&#x043e;&#x0432;&#x0437;&#x043d;&#x0430;&#x043d;&#x0438;&#x0439;</tspan><tspan y="-219.14397" x="52.800004 63.960016 69.381839 74.50911 80.53093 88.832759 94.854579 100.876399 106.29822 111.12004 117.14186 122.258228 131.16005 137.18187 142.6037 147.42552 152.84735 158.86917 164.291 169.11283 175.13465 184.03647 191.2692 196.38558 202.4074 207.22922 213.25104 222.15287 228.17469 234.1965 239.01833 245.04015 249.86197 255.57834 261.00016 265.82197 271.24378 277.2656 283.2874 292.64744 297.46925 302.89106 308.77107 313.59288 318.41468 324.4365 330.92744 336.34925 341.16017 347.18199 352.6038 358.0256 363.44743 369.46925 375.49107 380.91288 390.2729 396.2947 405.19654 410.61836 416.64018 421.46199 426.8838 432.9056 438.92744 444.34925 451.58198 459.8838 466.81108 471.0329 476.4547 482.47654 486.7529 494.8802 501.37113 509.20387 514.3202 523.222 530.4547 535.582 541.6038 546.42568 552.4366 561.3384 567.3602 573.3821 579.40396">&#x0412;&#x0445;&#x043e;&#x0434;&#x0435;&#x043f;&#x0440;&#x043e;&#x0435;&#x043a;&#x0442;&#x0430;&#x043f;&#x043e;&#x0441;&#x0442;&#x0440;&#x043e;&#x0435;&#x043d;&#x0430;&#x043c;&#x043e;&#x0434;&#x0435;&#x043b;&#x044c;&#x043f;&#x0440;&#x0435;&#x0434;&#x0441;&#x043a;&#x0430;&#x0437;&#x0430;&#x043d;&#x0438;&#x044f;&#x0441;&#x0432;&#x044f;&#x0437;&#x0435;&#x0439;,&#x043e;&#x0441;&#x043d;&#x043e;&#x0432;&#x0430;&#x043d;&#x043d;&#x0430;&#x044f;&#x043d;&#x0430;&#x0430;&#x043b;&#x0433;&#x043e;&#x0440;&#x0438;&#x0442;&#x043c;&#x0435;TransH.&#x042d;&#x0442;&#x0430;&#x043c;&#x043e;&#x0434;&#x0435;&#x043b;&#x044c;&#x043f;&#x0440;&#x0438;-</tspan><tspan y="-205.59497" x="52.800004 60.032739 64.85456 70.87638 76.8982 84.130939 93.163669 99.185489 105.207309 114.70913 119.53095 124.952777 130.9746 136.09098 145.73462 151.75644 156.56735 162.29463 167.71646 174.94919 179.77101 185.79283 191.81465 197.23648 202.65831 207.48014 213.50196 218.91287 224.9347 232.76743 242.11653 246.93836 252.96018 257.78199 263.2038 268.0256 275.25834 281.88017 287.90199 293.3238 299.3456 304.16743 309.8838 318.92744 324.94926 330.97108 339.4038 344.82563 350.84745 358.08018 363.50199 369.5238 375.54563 381.56745 388.18928 393.61109 399.0329 405.05473 410.7711 416.1929 421.61473 426.43653 432.1638 437.5856 442.4074 451.44013 456.26194 461.9783 467.40013 473.42195 479.44377 485.46559 489.99284 495.41465">&#x043c;&#x0435;&#x043d;&#x0438;&#x043c;&#x0430;&#x0434;&#x043b;&#x044f;&#x0437;&#x0430;&#x0434;&#x0430;&#x0447;&#x0440;&#x0435;&#x043a;&#x043e;&#x043c;&#x0435;&#x043d;&#x0434;&#x0430;&#x0442;&#x0435;&#x043b;&#x044c;&#x043d;&#x044b;&#x0445;&#x0441;&#x0438;&#x0441;&#x0442;&#x0435;&#x043c;,&#x043f;&#x043e;&#x0438;&#x0441;&#x043a;&#x0430;&#x0438;&#x043d;&#x0444;&#x043e;&#x0440;&#x043c;&#x0430;&#x0446;&#x0438;&#x0438;,&#x0431;&#x0430;&#x043d;&#x043a;&#x043e;&#x0432;&#x0441;&#x043a;&#x043e;&#x0433;&#x043e;&#x0441;&#x043a;&#x043e;&#x0440;&#x0438;&#x043d;&#x0433;&#x0430;.</tspan></text>
<text fill="#0000ff" xml:space="preserve" transform="matrix(1 0 -0 1 0 792)" font-size="10.9091" font-family="SFRM1095"><tspan y="-192.04598" x="52.800004 58.221826 61.232736 65.45456 71.17092 77.19274">github</tspan></text>
<text xml:space="preserve" transform="matrix(1 0 -0 1 0 792)" font-size="10.9091" font-family="SFRM1095"><tspan y="-174.71097" x="41.921007">&#x2022;</tspan></text>
<text xml:space="preserve" transform="matrix(1 0 -0 1 0 792)" font-size="10.9091" font-family="SFRM1095"><tspan y="-174.71097" x="52.800004 58.821828 67.25456 73.27638 78.698207 84.120029 88.94185 94.96367 100.68003 109.04731 113.86913 119.89095 125.91277 131.3346 136.75643 141.57825 146.40007 157.17826 165.54553 171.56735 176.98918 181.811 185.43283 191.45465 196.87648 202.8983 210.13103 215.55286 221.57468 226.9965 233.01833 238.44016 243.26198 248.6838 257.6511 263.6729 269.09474 273.91654 279.93836 285.96018 290.78199 296.8038 301.6256 307.64744 312.46925 318.49107 324.51289 333.48017 339.50199 344.3238 350.3456 361.1238 366.54563 374.9129 380.33473 385.75654 391.77836 397.80018 405.6329 411.05473 417.07655 425.902 431.92384 440.2911 446.31294 452.33476 457.15657 462.57838 468.6002 474.022 478.8438 487.2111 494.44383 499.86564 505.582 510.4038 516.42568 523.6584 529.3857 536.6184 542.0402 551.0075 561.63296 567.0657 572.182 578.20388">&#x00ab;&#x041f;&#x0440;&#x043e;&#x0432;&#x0435;&#x0440;&#x043a;&#x0430;&#x0433;&#x0438;&#x043f;&#x043e;&#x0442;&#x0435;&#x0437;&#x044b;&#x043e;&#x043b;&#x043e;&#x0433;-&#x043d;&#x043e;&#x0440;&#x043c;&#x0430;&#x043b;&#x044c;&#x043d;&#x043e;&#x0441;&#x0442;&#x0438;&#x0440;&#x0430;&#x0441;&#x043f;&#x0440;&#x0435;&#x0434;&#x0435;&#x043b;&#x0435;&#x043d;&#x0438;&#x0438;&#x0446;&#x0435;&#x043d;&#x044b;&#x043e;&#x0442;&#x043e;&#x0442;&#x043a;&#x0440;&#x044b;&#x0442;&#x0438;&#x044f;&#x0434;&#x043e;&#x0434;&#x043d;&#x0435;&#x0432;&#x043d;&#x043e;&#x0433;&#x043e;&#x043c;&#x0430;&#x043a;&#x0441;&#x0438;&#x043c;&#x0443;&#x043c;&#x0430;&#x00bb;&#x0412;&#x0445;&#x043e;&#x0434;&#x0435;</tspan><tspan y="-161.16197" x="52.800004 58.821828 64.84365 70.26547 75.087299 81.109119 86.22548 94.25458 102.73095 108.15277 115.985507 122.007328 127.429149 133.45098 139.4728 144.60007 150.62189 158.64008 167.26917 173.29099 179.3128 184.73464 190.15647 194.97829 201.0001 207.02193 213.04375 221.06194 225.88376 231.00014 236.42197 241.8438 247.86562 252.68744 258.10926 264.13108 270.1529 274.9747 279.7965 285.81834 291.84016 299.26924 304.08015 310.10197 316.12379 321.5456 326.9674 331.7892 336.61103 344.44377 350.06196 358.4947 363.3165 369.33833 374.76014 380.18196 386.20378 394.0365 403.8656 409.88743 415.90925 420.73106 426.15287 432.17469 437.90196 445.13468 449.95649 455.9783 461.40013 466.82194 476.65104 482.53105 487.95286 493.97468 499.85469 507.99287 513.4147 517.931 526.41836 531.84017 537.862 543.2838 549.30569 555.3275 560.7493 566.17117 570.993 577.01486">&#x043f;&#x0440;&#x043e;&#x0435;&#x043a;&#x0442;&#x0430;&#x044f;&#x0432;&#x044b;&#x0434;&#x0432;&#x0438;&#x043d;&#x0443;&#x043b;&#x0430;&#x0438;&#x043f;&#x0440;&#x043e;&#x0432;&#x0435;&#x0440;&#x0438;&#x043b;&#x0430;&#x0441;&#x0442;&#x0430;&#x0442;&#x0438;&#x0441;&#x0442;&#x0438;&#x0447;&#x0435;&#x0441;&#x043a;&#x0438;&#x0435;&#x0433;&#x0438;&#x043f;&#x043e;&#x0442;&#x0435;&#x0437;&#x044b;.&#x041e;&#x0441;&#x043d;&#x043e;&#x0432;&#x043d;&#x044b;&#x043c;&#x0438;&#x043d;&#x0441;&#x0442;&#x0440;&#x0443;&#x043c;&#x0435;&#x043d;&#x0442;&#x043e;&#x043c;&#x044f;&#x0432;&#x043b;&#x044f;&#x044e;&#x0442;&#x0441;&#x044f;&#x0431;&#x0438;&#x0431;&#x043b;&#x0438;&#x043e;&#x0442;&#x0435;&#x043a;&#x0438;</tspan><tspan y="-147.61197" x="52.800004 58.821828 63.64365 66.654567 74.02911 78.85094 85.483669 91.505489 95.7164 101.13822 105.36005 109.63641 118.66915 124.39643 130.41826 135.24008 138.25099 142.52736 149.14919 156.2292 161.65103 167.67285 173.69467 179.1165 183.39287">SciPy,Statsmodels,Pandas.</tspan></text>
<text xml:space="preserve" transform="matrix(1 0 -0 1 0 792)" font-size="10.9091" font-family="SFBX1095" font-weight="bold"><tspan y="-122.43497" x="28.800004 42.31638 51.316389 59.498216 68.35641">&#x041e;&#x0421;&#x0415;&#x0411;&#x0415;</tspan></text>
<path transform="matrix(1,0,0,-1,28.8,674.617)" stroke-width=".398" stroke-linecap="butt" stroke-miterlimit="10" stroke-linejoin="miter" fill="none" stroke="#000000" d="M0 0H554.401"/>
<text xml:space="preserve" transform="matrix(1 0 -0 1 0 792)" font-size="10.9091" font-family="SFRM1095"><tspan y="-102.895" x="41.921">&#x2022;</tspan></text>
<text xml:space="preserve" transform="matrix(1 0 -0 1 0 792)" font-size="10.9091" font-family="SFRM1095"><tspan y="-102.895" x="52.800004 61.23274 66.654567 72.676387 78.55639 86.69458 91.5164 99.70914 105.73096 111.75278 117.7746 122.59642 127.41824 133.44007 138.8619 148.87644 154.29827 160.32009 166.3419 173.57463 179.59645 185.61827 191.0401 199.83283 205.85465 214.05829 221.29102 226.71285 232.13468 236.9565 244.18923 249.61106 255.03289 261.04383 266.7711 274.3638 280.38563 290.32383 296.34565 301.16746 305.98927 312.01109 320.6729 326.09474 333.92747 339.94929 345.3711 351.3929 357.41474 363.43656 370.66929 376.0911 381.87294 389.70567 395.12748 400.5493 408.15293 414.17475 420.19657 426.21839 431.0402 436.462 441.88383 447.90565 453.91658 461.5202 469.95295 475.97477 481.99659 487.4184 493.44023 498.26203 504.28385 509.10566 514.52749 517.5384 526.3312 535.1348 541.1567 550.1894 556.21127 561.0331 566.4549 571.27676 577.004">&#x042f;&#x0432;&#x043b;&#x044f;&#x044e;&#x0441;&#x044c;&#x043f;&#x0440;&#x0438;&#x0437;&#x0435;&#x0440;&#x043e;&#x043c;&#x043e;&#x043b;&#x0438;&#x043c;&#x043f;&#x0438;&#x0430;&#x0434;&#x043f;&#x043e;&#x043c;&#x0430;&#x0442;&#x0435;&#x043c;&#x0430;&#x0442;&#x0438;&#x043a;&#x0435;&#x00ab;&#x041c;&#x0438;&#x0441;&#x0441;&#x0438;&#x044f;&#x0432;&#x044b;&#x043f;&#x043e;&#x043b;&#x043d;&#x0438;&#x043c;&#x0430;.&#x0422;&#x0432;&#x043e;&#x0451;&#x043f;&#x0440;&#x0438;&#x0437;&#x0432;&#x0430;&#x043d;&#x0438;&#x0435;&#x0444;&#x0438;&#x043d;&#x0430;&#x043d;&#x0441;&#x0438;&#x0441;&#x0442;!&#x00bb;&#x0438;&#x00ab;&#x0424;&#x0438;&#x0437;&#x0442;&#x0435;&#x0445;&#x00bb;</tspan></text>
<text xml:space="preserve" transform="matrix(1 0 -0 1 0 792)" font-size="10.9091" font-family="SFRM1095"><tspan y="-82.572" x="41.921007">&#x2022;</tspan></text>
<text xml:space="preserve" transform="matrix(1 0 -0 1 0 792)" font-size="10.9091" font-family="SFRM1095"><tspan y="-82.572" x="52.800004 59.8691 65.290927 70.11275 75.53457 81.55639 86.97821 94.81094 104.8255 110.83641 116.25823 121.68005 129.51279 135.5346 146.74916 152.46553 157.88736 165.12009 172.35282 178.0801 184.10192 190.12374 195.8401 201.26194 207.28376 213.30558 219.3274 227.52013 232.94196 240.77469 245.59651 251.01834 257.04017 267.6547 273.6765 279.09834 283.92015 289.93107 295.65834 304.3965 309.81834 317.9565 322.77833 333.38197 343.9856 348.8074 354.82923 359.65104 365.67286 371.69468 380.1274 386.14924 392.17106 403.08015 408.50196 414.52378 419.34559 425.3674 430.1892 435.01103 440.43284 448.63648 456.76377 462.78559 468.1965 474.21833 480.24015 485.66197 491.68379 497.7056 502.5274 507.3492 513.0765 518.4983 528.50198 535.7347 543.56747 552.30569 558.3275 563.14938 569.1712 575.19308 580.0149">&#x0420;&#x0430;&#x0437;&#x0432;&#x0438;&#x0442;&#x044b;&#x0435;&#x043d;&#x0430;&#x0432;&#x044b;&#x043a;&#x0438;&#x043a;&#x043e;&#x043c;&#x043c;&#x0443;&#x043d;&#x0438;&#x043a;&#x0430;&#x0446;&#x0438;&#x0438;,&#x0431;&#x044b;&#x0441;&#x0442;&#x0440;&#x043e;&#x043f;&#x043e;&#x0433;&#x0440;&#x0443;&#x0436;&#x0430;&#x044e;&#x0441;&#x044c;&#x0432;&#x0441;&#x043f;&#x0435;&#x0446;&#x0438;&#x0444;&#x0438;&#x043a;&#x0443;&#x0431;&#x0438;&#x0437;&#x043d;&#x0435;&#x0441;&#x0430;.&#x0410;&#x043d;&#x0430;&#x043b;&#x0438;&#x0442;&#x0438;&#x0447;&#x0435;&#x0441;&#x043a;&#x043e;&#x0435;&#x043c;&#x044b;&#x0448;&#x043b;&#x0435;&#x043d;&#x0438;&#x0435;,</tspan><tspan y="-69.021999" x="52.800004 63.50183 69.52365 74.345478 83.083667 87.90549 93.92731 99.94913 112.75642 118.77824 126.91643 132.33826 137.76009 148.46192 153.28374 158.70557 164.72739 169.84377 175.86559 186.56742 191.98925 196.81107 201.63289 206.14926 212.17108 222.27292 228.29474 233.42203 239.43294 244.86568 249.98206 259.0148 269.42207 275.13844 280.56025 287.79298 293.8148 299.8366 304.65843 310.38569 315.2075 321.2184 326.64024 334.33116 346.69114 352.71296 358.13478 363.55659 368.9784 374.4002 383.902 389.92384 395.34565 406.03657 412.05839 418.0802 423.502 428.32383 434.34565 439.4729 444.8947 452.12745 462.81837 473.37837 478.80018 483.62199 488.4438 492.96015 498.98197 509.08378 514.5056 520.52749 526.5493 533.78207 539.20388 544.6257 549.4475 555.46939 560.8912 566.913 577.01486">&#x043a;&#x0440;&#x0435;&#x0448;&#x0435;&#x043d;&#x0438;&#x044e;&#x043b;&#x044e;&#x0431;&#x043e;&#x0439;&#x0437;&#x0430;&#x0434;&#x0430;&#x0447;&#x0438;&#x0432;&#x0441;&#x0435;&#x0433;&#x0434;&#x0430;&#x043f;&#x043e;&#x0434;&#x0445;&#x043e;&#x0436;&#x0443;&#x043a;&#x043e;&#x043c;&#x043f;&#x043b;&#x0435;&#x043a;&#x0441;&#x043d;&#x043e;.&#x0412;&#x0440;&#x0430;&#x0431;&#x043e;&#x0442;&#x0435;&#x043d;&#x0430;&#x0434;&#x043f;&#x0440;&#x043e;&#x0435;&#x043a;&#x0442;&#x0430;&#x043c;&#x0438;&#x044f;&#x0432;&#x0441;&#x0435;&#x0433;&#x0434;&#x0430;&#x0432;&#x043d;&#x0438;&#x043c;&#x0430;&#x0442;&#x0435;&#x043b;&#x044c;&#x043d;&#x0430;&#x043a;</tspan><tspan y="-55.472997" x="52.800004 58.821828 63.64365 68.76002 74.18184 80.20366 86.083667 93.3164 99.46913 105.49095 110.312778 116.334598 121.75642 127.77824 133.20006 138.02188 143.74916 155.02916 161.05098 166.47281 172.49463 177.91646 183.93828 189.9601 195.98192 201.40375 206.22557 212.24739 217.66922 223.68013 231.51287 239.4765 246.70923 251.53105 256.95289 262.08015 268.10197 279.0765 285.09834 291.12016 296.54197 301.96379 306.78559 312.8074 318.82923 327.99287 332.81468 338.8256 344.8474 350.26924 355.69105 360.51286 365.33467 371.4874 377.50923 383.53105 388.6583 394.6801 400.40739 407.6401 413.05104 424.34196 430.35289 436.3747 441.7965 447.81834 453.24015 459.26197 465.28379 470.1056 474.9274 480.94923 486.67649 497.95649 503.9783 508.8001 514.82199 520.8438 526.2656 531.08749 536.5093 545.07296 551.0948 557.11666 561.9385 567.9603 573.9822 579.404">&#x0434;&#x0435;&#x0442;&#x0430;&#x043b;&#x044f;&#x043c;,&#x0438;&#x0441;&#x043f;&#x043e;&#x043b;&#x044c;&#x0437;&#x0443;&#x044e;&#x0434;&#x043e;&#x043f;&#x043e;&#x043b;&#x043d;&#x0438;&#x0442;&#x0435;&#x043b;&#x044c;&#x043d;&#x044b;&#x0435;&#x043c;&#x0435;&#x0442;&#x043e;&#x0434;&#x044b;&#x043f;&#x0440;&#x043e;&#x0432;&#x0435;&#x0440;&#x043a;&#x0438;&#x0433;&#x0438;&#x043f;&#x043e;&#x0442;&#x0435;&#x0437;,&#x043f;&#x0440;&#x043e;&#x0434;&#x0443;&#x043c;&#x0430;&#x044e;&#x043f;&#x0440;&#x0430;&#x043a;&#x0442;&#x0438;&#x0447;&#x0435;&#x0441;&#x043a;&#x0443;&#x044e;&#x0446;&#x0435;&#x043d;&#x043d;&#x043e;&#x0441;&#x0442;&#x044c;&#x043f;&#x0440;&#x0435;&#x0434;&#x043b;&#x0430;-</tspan><tspan y="-41.923997" x="52.800004 57.316373 62.738195 67.56001 74.79275 82.62548 91.97458 97.9964 102.81822 111.55641 116.378238 122.400058 128.42188 134.43279">&#x0433;&#x0430;&#x0435;&#x043c;&#x044b;&#x0445;&#x0440;&#x0435;&#x0448;&#x0435;&#x043d;&#x0438;&#x0439;.</tspan></text>
<text xml:space="preserve" transform="matrix(1 0 -0 1 0 792)" font-size="10.9091" font-family="SFRM1095"><tspan y="-21.599997" x="41.921007">&#x2022;</tspan></text>
<text xml:space="preserve" transform="matrix(1 0 -0 1 0 792)" font-size="10.9091" font-family="SFRM1095"><tspan y="-21.599997" x="52.800004 60.927286 66.949108 71.46547 77.48729 83.50911 89.53093 94.35275 100.37457 106.39639 116.04003 121.92004 126.74186 134.56369 144.20734 152.04007 157.4619 164.08373 170.10555 176.12737 184.86556 194.21466 199.63649 204.45832 210.1856 216.20742 222.22924 228.25106 233.07288 237.8947 243.91652 249.6438 261.39289 267.4147 272.83653 278.85835 284.5856 291.81834 296.64015 302.66197 307.77833 313.20014 319.22196 325.24378 337.00379 346.6365 352.65834 358.08015 363.50196 368.92378 374.04014 379.46195 391.22196 399.65467 405.67649 411.6983 417.12013 425.55287 430.37467 435.19648 440.01829 446.0401 451.4619 457.48374 462.90556 468.92738 474.34919 480.371 485.79283 495.42555 501.44737 506.26918 511.99647 516.8183 522.84017 528.5565 533.97836">&#x0410;&#x043d;&#x0433;&#x043b;&#x0438;&#x0439;&#x0441;&#x043a;&#x0438;&#x0439;&#x044f;&#x0437;&#x044b;&#x043a;C1,&#x043f;&#x0438;&#x0448;&#x0443;&#x0442;&#x0435;&#x0445;&#x043d;&#x0438;&#x0447;&#x0435;&#x0441;&#x043a;&#x0443;&#x044e;&#x0434;&#x043e;&#x043a;&#x0443;&#x043c;&#x0435;&#x043d;&#x0442;&#x0430;&#x0446;&#x0438;&#x044e;&#x0438;&#x0440;&#x0430;&#x0431;&#x043e;&#x0442;&#x0430;&#x044e;&#x0441;&#x043f;&#x0440;&#x043e;&#x0444;&#x0435;&#x0441;&#x0441;&#x0438;&#x043e;&#x043d;&#x0430;&#x043b;&#x044c;&#x043d;&#x043e;&#x0439;&#x043b;&#x0435;&#x043a;&#x0441;&#x0438;&#x043a;&#x043e;&#x0439;</tspan></text>
</svg>
